<mxfile host="app.diagrams.net" agent="Mozilla/5.0 (Windows NT 10.0; Win64; x64) AppleWebKit/537.36 (KHTML, like Gecko) Chrome/130.0.0.0 Safari/537.36 Edg/130.0.0.0" version="24.8.6">
  <diagram name="Page-1" id="U8tpO02upYvYylQcckcD">
    <mxGraphModel grid="1" page="1" gridSize="10" guides="1" tooltips="1" connect="1" arrows="1" fold="1" pageScale="1" pageWidth="850" pageHeight="1100" math="0" shadow="0">
      <root>
        <mxCell id="0" />
        <mxCell id="1" parent="0" />
        <mxCell id="CNAIye_aoUkl1Aho5n29-1" style="edgeStyle=orthogonalEdgeStyle;rounded=0;orthogonalLoop=1;jettySize=auto;html=1;exitX=0.5;exitY=1;exitDx=0;exitDy=0;entryX=0.5;entryY=0;entryDx=0;entryDy=0;" edge="1" parent="1" source="CNAIye_aoUkl1Aho5n29-2" target="CNAIye_aoUkl1Aho5n29-17">
          <mxGeometry relative="1" as="geometry" />
        </mxCell>
        <mxCell id="CNAIye_aoUkl1Aho5n29-2" value="&lt;div&gt;&lt;b&gt;&lt;u&gt;Введение общих данных&lt;/u&gt;&lt;br&gt;Экран общий для волонтеров и организаций&lt;/b&gt;&lt;br&gt;Поле введения почты&lt;/div&gt;&lt;div&gt;Поле введения номера тф&lt;/div&gt;&lt;div&gt;&lt;span style=&quot;background-color: initial;&quot;&gt;Выбор направлений деятельности&lt;/span&gt;&lt;/div&gt;&lt;div&gt;Кнопка &quot;Далее&quot;&lt;/div&gt;&lt;div&gt;Кнопка &quot;Назад&quot;&lt;/div&gt;" style="rounded=0;whiteSpace=wrap;html=1;" vertex="1" parent="1">
          <mxGeometry x="100" y="250" width="170" height="230" as="geometry" />
        </mxCell>
        <mxCell id="CNAIye_aoUkl1Aho5n29-3" style="edgeStyle=orthogonalEdgeStyle;rounded=0;orthogonalLoop=1;jettySize=auto;html=1;exitX=0.5;exitY=1;exitDx=0;exitDy=0;entryX=0.5;entryY=0;entryDx=0;entryDy=0;" edge="1" parent="1" source="CNAIye_aoUkl1Aho5n29-4" target="CNAIye_aoUkl1Aho5n29-16">
          <mxGeometry relative="1" as="geometry" />
        </mxCell>
        <mxCell id="CNAIye_aoUkl1Aho5n29-4" value="&lt;div&gt;&lt;b&gt;&lt;u&gt;Введение данных пользователя волонтера&lt;/u&gt;&lt;/b&gt;&lt;/div&gt;&lt;div&gt;&lt;b&gt;Экран для волонтеров&lt;/b&gt;&lt;br&gt;Поле выбора временных слотов&lt;/div&gt;&lt;div&gt;Кнопка &quot;Добавить адрес&quot;&lt;/div&gt;&lt;div&gt;Кнопка &quot;Назад&quot;&lt;/div&gt;&lt;div&gt;Кнопка &quot;Завершить регистрацию&quot;&lt;/div&gt;" style="rounded=0;whiteSpace=wrap;html=1;" vertex="1" parent="1">
          <mxGeometry x="410" y="810" width="170" height="230" as="geometry" />
        </mxCell>
        <mxCell id="CNAIye_aoUkl1Aho5n29-5" style="edgeStyle=orthogonalEdgeStyle;rounded=0;orthogonalLoop=1;jettySize=auto;html=1;exitX=0.5;exitY=1;exitDx=0;exitDy=0;entryX=0.5;entryY=0;entryDx=0;entryDy=0;" edge="1" parent="1" source="CNAIye_aoUkl1Aho5n29-6" target="CNAIye_aoUkl1Aho5n29-16">
          <mxGeometry relative="1" as="geometry" />
        </mxCell>
        <mxCell id="CNAIye_aoUkl1Aho5n29-6" value="&lt;div&gt;&lt;b&gt;&lt;u&gt;Введение данных организации&lt;/u&gt;&lt;/b&gt;&lt;/div&gt;&lt;div&gt;&lt;b&gt;Экран для организаций&lt;/b&gt;&lt;br&gt;Поле ввода сайта&lt;/div&gt;&lt;div&gt;Поле ввода информации об организации&lt;br&gt;&lt;/div&gt;&lt;div&gt;&lt;div&gt;Кнопка &quot;Назад&quot;&lt;/div&gt;&lt;div&gt;Кнопка &quot;Завершить регистрацию&quot;&lt;/div&gt;&lt;/div&gt;" style="rounded=0;whiteSpace=wrap;html=1;" vertex="1" parent="1">
          <mxGeometry x="110" y="810" width="150" height="230" as="geometry" />
        </mxCell>
        <mxCell id="CNAIye_aoUkl1Aho5n29-7" style="edgeStyle=orthogonalEdgeStyle;rounded=0;orthogonalLoop=1;jettySize=auto;html=1;entryX=0.5;entryY=0;entryDx=0;entryDy=0;" edge="1" parent="1" source="CNAIye_aoUkl1Aho5n29-8" target="CNAIye_aoUkl1Aho5n29-15">
          <mxGeometry relative="1" as="geometry" />
        </mxCell>
        <mxCell id="CNAIye_aoUkl1Aho5n29-8" value="&lt;div&gt;&lt;b&gt;&lt;u&gt;Стартовый экран&lt;/u&gt;&lt;br&gt;Экран общий для волонтеров и организаций&lt;/b&gt;&lt;br&gt;Поле выбора &quot;Вы волонтер или организация?&quot;&lt;/div&gt;&lt;div&gt;Кнопка &quot;Далее&quot;&lt;/div&gt;&lt;div&gt;&lt;br&gt;&lt;/div&gt;" style="rounded=0;whiteSpace=wrap;html=1;" vertex="1" parent="1">
          <mxGeometry x="249.5" y="-170" width="170" height="110" as="geometry" />
        </mxCell>
        <mxCell id="CNAIye_aoUkl1Aho5n29-9" style="edgeStyle=orthogonalEdgeStyle;rounded=0;orthogonalLoop=1;jettySize=auto;html=1;exitX=0.5;exitY=1;exitDx=0;exitDy=0;" edge="1" parent="1" source="CNAIye_aoUkl1Aho5n29-10" target="CNAIye_aoUkl1Aho5n29-18">
          <mxGeometry relative="1" as="geometry" />
        </mxCell>
        <mxCell id="CNAIye_aoUkl1Aho5n29-10" value="&lt;div&gt;&lt;b&gt;&lt;u&gt;Введение общих данных&lt;/u&gt;&lt;br&gt;Экран общий для волонтеров и организаций&lt;/b&gt;&lt;br&gt;Поле введения почты&lt;/div&gt;&lt;div&gt;Поле введения номера тф&lt;/div&gt;&lt;div&gt;&lt;span style=&quot;background-color: initial;&quot;&gt;Выбор направлений деятельности&lt;/span&gt;&lt;/div&gt;&lt;div&gt;Кнопка &quot;Далее&quot;&lt;/div&gt;&lt;div&gt;Кнопка &quot;Назад&quot;&lt;/div&gt;" style="rounded=0;whiteSpace=wrap;html=1;" vertex="1" parent="1">
          <mxGeometry x="410" y="250" width="170" height="230" as="geometry" />
        </mxCell>
        <mxCell id="CNAIye_aoUkl1Aho5n29-11" style="edgeStyle=orthogonalEdgeStyle;rounded=0;orthogonalLoop=1;jettySize=auto;html=1;exitX=1;exitY=0.5;exitDx=0;exitDy=0;entryX=0.5;entryY=0;entryDx=0;entryDy=0;" edge="1" parent="1" source="CNAIye_aoUkl1Aho5n29-15" target="CNAIye_aoUkl1Aho5n29-21">
          <mxGeometry relative="1" as="geometry" />
        </mxCell>
        <mxCell id="CNAIye_aoUkl1Aho5n29-12" value="Да" style="edgeLabel;html=1;align=center;verticalAlign=middle;resizable=0;points=[];" connectable="0" vertex="1" parent="CNAIye_aoUkl1Aho5n29-11">
          <mxGeometry x="-0.7822" y="1" relative="1" as="geometry">
            <mxPoint x="1" as="offset" />
          </mxGeometry>
        </mxCell>
        <mxCell id="CNAIye_aoUkl1Aho5n29-13" style="edgeStyle=orthogonalEdgeStyle;rounded=0;orthogonalLoop=1;jettySize=auto;html=1;exitX=0;exitY=0.5;exitDx=0;exitDy=0;" edge="1" parent="1" source="CNAIye_aoUkl1Aho5n29-15" target="CNAIye_aoUkl1Aho5n29-2">
          <mxGeometry relative="1" as="geometry" />
        </mxCell>
        <mxCell id="CNAIye_aoUkl1Aho5n29-14" value="Нет" style="edgeLabel;html=1;align=center;verticalAlign=middle;resizable=0;points=[];" connectable="0" vertex="1" parent="CNAIye_aoUkl1Aho5n29-13">
          <mxGeometry x="-0.7649" relative="1" as="geometry">
            <mxPoint x="1" as="offset" />
          </mxGeometry>
        </mxCell>
        <mxCell id="CNAIye_aoUkl1Aho5n29-15" value="Пользователь выбрал &quot;Волонтер&quot;?" style="rhombus;whiteSpace=wrap;html=1;" vertex="1" parent="1">
          <mxGeometry x="262" y="-20" width="145" height="110" as="geometry" />
        </mxCell>
        <mxCell id="CNAIye_aoUkl1Aho5n29-16" value="&lt;div&gt;&lt;b&gt;&lt;u&gt;Финальный экран завершения регистрации&lt;/u&gt;&lt;/b&gt;&lt;/div&gt;&lt;div&gt;&lt;b&gt;Экран общий для волонтеров и организаций&lt;/b&gt;&lt;br&gt;Текст &quot;Регистрация завершена&quot;&lt;/div&gt;&lt;div&gt;&lt;div&gt;Кнопка &quot;ОК&quot;&lt;/div&gt;&lt;/div&gt;" style="rounded=0;whiteSpace=wrap;html=1;" vertex="1" parent="1">
          <mxGeometry x="220" y="1090" width="230" height="150" as="geometry" />
        </mxCell>
        <mxCell id="CNAIye_aoUkl1Aho5n29-19" style="edgeStyle=orthogonalEdgeStyle;rounded=0;orthogonalLoop=1;jettySize=auto;html=1;exitX=0.5;exitY=1;exitDx=0;exitDy=0;entryX=0.5;entryY=0;entryDx=0;entryDy=0;" edge="1" parent="1" source="CNAIye_aoUkl1Aho5n29-17" target="CNAIye_aoUkl1Aho5n29-6">
          <mxGeometry relative="1" as="geometry" />
        </mxCell>
        <mxCell id="CNAIye_aoUkl1Aho5n29-17" value="&lt;div&gt;&lt;b&gt;&lt;u&gt;Введение общих данных&lt;/u&gt;&lt;br&gt;Экран общий для волонтеров и организаций&lt;/b&gt;&lt;br&gt;&lt;/div&gt;&lt;div&gt;Поле введения адреса&lt;/div&gt;&lt;div&gt;Кнопка &quot;Далее&quot;&lt;/div&gt;&lt;div&gt;Кнопка &quot;Назад&quot;&lt;/div&gt;" style="rounded=0;whiteSpace=wrap;html=1;" vertex="1" parent="1">
          <mxGeometry x="100" y="520" width="170" height="230" as="geometry" />
        </mxCell>
        <mxCell id="CNAIye_aoUkl1Aho5n29-20" style="edgeStyle=orthogonalEdgeStyle;rounded=0;orthogonalLoop=1;jettySize=auto;html=1;entryX=0.5;entryY=0;entryDx=0;entryDy=0;" edge="1" parent="1" source="CNAIye_aoUkl1Aho5n29-18" target="CNAIye_aoUkl1Aho5n29-4">
          <mxGeometry relative="1" as="geometry" />
        </mxCell>
        <mxCell id="CNAIye_aoUkl1Aho5n29-18" value="&lt;div&gt;&lt;b&gt;&lt;u&gt;Введение общих данных&lt;/u&gt;&lt;br&gt;Экран общий для волонтеров и организаций&lt;/b&gt;&lt;br&gt;&lt;/div&gt;&lt;div&gt;Поле введения адреса&lt;/div&gt;&lt;div&gt;Кнопка &quot;Далее&quot;&lt;/div&gt;&lt;div&gt;Кнопка &quot;Назад&quot;&lt;/div&gt;&lt;div&gt;&lt;br&gt;&lt;/div&gt;&lt;div&gt;Только для волонтеров:&amp;nbsp;&lt;br&gt;Кнопка &quot;Добавить адрес&quot;&lt;/div&gt;" style="rounded=0;whiteSpace=wrap;html=1;" vertex="1" parent="1">
          <mxGeometry x="410" y="520" width="170" height="230" as="geometry" />
        </mxCell>
        <mxCell id="CNAIye_aoUkl1Aho5n29-22" style="edgeStyle=orthogonalEdgeStyle;rounded=0;orthogonalLoop=1;jettySize=auto;html=1;exitX=0.5;exitY=1;exitDx=0;exitDy=0;" edge="1" parent="1" source="CNAIye_aoUkl1Aho5n29-21" target="CNAIye_aoUkl1Aho5n29-10">
          <mxGeometry relative="1" as="geometry" />
        </mxCell>
        <mxCell id="CNAIye_aoUkl1Aho5n29-21" value="&lt;div&gt;&lt;b&gt;&lt;u&gt;Введение данных пользователя волонтера&lt;/u&gt;&lt;/b&gt;&lt;/div&gt;&lt;div&gt;&lt;b&gt;Экран для волонтеров&lt;/b&gt;&lt;br&gt;&lt;/div&gt;&lt;div&gt;Поле ввода ФИО&lt;/div&gt;&lt;div&gt;Кнопка &quot;Далее&quot;&lt;/div&gt;&lt;div&gt;Кнопка &quot;Назад&quot;&lt;/div&gt;" style="rounded=0;whiteSpace=wrap;html=1;" vertex="1" parent="1">
          <mxGeometry x="410" y="80" width="170" height="120" as="geometry" />
        </mxCell>
      </root>
    </mxGraphModel>
  </diagram>
</mxfile>
